<svg id="Capa_1" data-name="Capa 1" xmlns="http://www.w3.org/2000/svg" viewBox="0 0 24 24"><defs><style>.cls-1{fill:#b13158;}</style></defs><title>bolsas</title><path class="cls-1" d="M35.09,21.79,26.25,12.9a3.06,3.06,0,0,0-2.14-.9h0a3,3,0,0,0-2.13.87l-9,8.84A3.07,3.07,0,0,0,12,23.93a3.13,3.13,0,0,0,.92,2.24l9,8.94a3.05,3.05,0,0,0,2.15.89h0a3,3,0,0,0,2.14-.9l5.44-5.45h-.54L26,34.83a2.66,2.66,0,0,1-3.76,0l-9-8.94a2.74,2.74,0,0,1-.81-2A2.79,2.79,0,0,1,13.2,22l9-8.83a2.65,2.65,0,0,1,1.86-.76,2.68,2.68,0,0,1,1.89.79l8.84,8.89a2.68,2.68,0,0,1,.8,1.93,2.61,2.61,0,0,1-.09.69h.4A3.92,3.92,0,0,0,36,24,3.11,3.11,0,0,0,35.09,21.79Z" transform="translate(-12 -12)"/><path class="cls-1" d="M21.05,28.82h7.2V20.74H27a1.77,1.77,0,0,0-.08-.31h.88v-.31h-1a2,2,0,0,0-1.38-1,2,2,0,0,0-3.38,1H20.4v8.31h.35v-8H22v.1a1.48,1.48,0,0,0,0,.21h-.93Zm5.45-8.39a1.6,1.6,0,0,1,.1.31h-.66a1.48,1.48,0,0,0,0-.21v-.1Zm-.18-.31h-.41a2.16,2.16,0,0,0-.16-.49A1.69,1.69,0,0,1,26.32,20.12Zm-.75.41a1.48,1.48,0,0,1,0,.21H23.47a1.6,1.6,0,0,1,.1-.31h2Zm-.38-1.06a1.61,1.61,0,0,1,.33.65H23.75A1.59,1.59,0,0,1,25,19.46ZM24,18.88a1.6,1.6,0,0,1,.79.21,2,2,0,0,0-1.46,1H22.4A1.62,1.62,0,0,1,24,18.88Zm-1.6,1.55h.8a1.77,1.77,0,0,0-.08.31h-.71a1.49,1.49,0,0,1,0-.21S22.36,20.46,22.36,20.43Z" transform="translate(-12 -12)"/></svg>