<svg id="Capa_1" data-name="Capa 1" xmlns="http://www.w3.org/2000/svg" viewBox="0 0 24 24"><defs><style>.cls-1{fill:#823072;}.cls-2{fill:#8a3078;}</style></defs><title>camisas</title><path class="cls-1" d="M22.23,13.15a2.65,2.65,0,0,1,1.86-.76,2.68,2.68,0,0,1,1.89.79l8.84,8.89a2.68,2.68,0,0,1,.8,1.93,2.61,2.61,0,0,1-.09.69h.4A3.92,3.92,0,0,0,36,24a3.11,3.11,0,0,0-.91-2.22L26.25,12.9a3.06,3.06,0,0,0-2.14-.9h0a3,3,0,0,0-2.13.87l-9,8.84A3.07,3.07,0,0,0,12,23.93a3.13,3.13,0,0,0,.92,2.24l9,8.94a3.05,3.05,0,0,0,2.15.89h0a3,3,0,0,0,2.14-.9l5.44-5.45h-.54L26,34.83a2.66,2.66,0,0,1-3.76,0l-9-8.94a2.74,2.74,0,0,1-.81-2A2.79,2.79,0,0,1,13.2,22Z" transform="translate(-12 -12)"/><path class="cls-2" d="M29.59,21.91c-.38-.35-1.8-2.33-1.8-2.33a.48.48,0,0,0-.34-.27c-.27-.08-1.8-.74-1.8-.74a1.79,1.79,0,0,1-3.3,0s-1.53.66-1.8.74a.51.51,0,0,0-.34.27s-1.42,2-1.8,2.33-.23.5-.23.5a2.32,2.32,0,0,0,1.42,1c.49.12.53-.11.53-.11l.73-1.13a20.8,20.8,0,0,1,0,6.64c-.08.51.8.43.8.43h4.68s.88.08.8-.43a20.8,20.8,0,0,1,0-6.64l.73,1.13s0,.23.53.11a2.29,2.29,0,0,0,1.42-1S30,22.26,29.59,21.91ZM20,23.12a.16.16,0,0,1-.16.1h0a3.67,3.67,0,0,1-1.33-.89.16.16,0,0,1,0-.22.16.16,0,0,1,.22,0,3.33,3.33,0,0,0,1.19.78A.16.16,0,0,1,20,23.12Zm6.52-1.52H24.65v-.39h1.88Zm3,.72a3.67,3.67,0,0,1-1.33.89h0a.14.14,0,0,1-.15-.1.14.14,0,0,1,.08-.2,3.33,3.33,0,0,0,1.19-.78.16.16,0,0,1,.22,0A.16.16,0,0,1,29.52,22.32Z" transform="translate(-12 -12)"/></svg>