<svg id="Capa_1" data-name="Capa 1" xmlns="http://www.w3.org/2000/svg" viewBox="0 0 24 24"><defs><style>.cls-1{fill:#8a2e76;}</style></defs><title>gorra</title><path class="cls-1" d="M35.09,21.79,26.25,12.9a3.06,3.06,0,0,0-2.14-.9h0a3,3,0,0,0-2.13.87l-9,8.84A3.07,3.07,0,0,0,12,23.93a3.13,3.13,0,0,0,.92,2.24l9,8.94a3.05,3.05,0,0,0,2.15.89h0a3,3,0,0,0,2.14-.9l5.44-5.45h-.54L26,34.83a2.66,2.66,0,0,1-3.76,0l-9-8.94a2.74,2.74,0,0,1-.81-2A2.79,2.79,0,0,1,13.2,22l9-8.83a2.65,2.65,0,0,1,1.86-.76,2.68,2.68,0,0,1,1.89.79l8.84,8.89a2.68,2.68,0,0,1,.8,1.93,2.61,2.61,0,0,1-.09.69h.4A3.92,3.92,0,0,0,36,24,3.11,3.11,0,0,0,35.09,21.79Z" transform="translate(-12 -12)"/><path class="cls-1" d="M29.21,26.45c.34-5.44-2.84-5.59-2.84-5.59,1.61,1.32,1.15,5.4,1.15,5.4Z" transform="translate(-12 -12)"/><path class="cls-1" d="M24,20.74s-3.33-.07-3.52,4.16c0,0,1,0,1.91,0C22.35,24.9,22.66,21.52,24,20.74Z" transform="translate(-12 -12)"/><path class="cls-1" d="M25.72,20.67s0-.24-.49-.32-.58.24-.58.24c-1.76.89-2,4.31-2,4.31,3.64.35,4.52,1.13,4.52,1.13C27.68,21.4,25.72,20.67,25.72,20.67Z" transform="translate(-12 -12)"/><path class="cls-1" d="M25.07,27.54A6.26,6.26,0,0,0,27,26.3a11.87,11.87,0,0,0-6.66-1.05s-2.34.7-3,1.55c0,0,2.83-.54,4.4.27S23.81,28.12,25.07,27.54Z" transform="translate(-12 -12)"/><path class="cls-1" d="M17.07,27.19s1.11,1,2.64-.31A4.76,4.76,0,0,0,17.07,27.19Z" transform="translate(-12 -12)"/></svg>