<svg id="Capa_1" data-name="Capa 1" xmlns="http://www.w3.org/2000/svg" viewBox="0 0 24 24"><defs><style>.cls-1{fill:#c13b72;}</style></defs><title>impresora</title><path class="cls-1" d="M22.23,13.15a2.65,2.65,0,0,1,1.86-.76,2.68,2.68,0,0,1,1.89.79l8.84,8.89a2.68,2.68,0,0,1,.8,1.93,2.61,2.61,0,0,1-.09.69h.4A3.92,3.92,0,0,0,36,24a3.11,3.11,0,0,0-.91-2.22L26.25,12.9a3.06,3.06,0,0,0-2.14-.9h0a3,3,0,0,0-2.13.87l-9,8.84A3.07,3.07,0,0,0,12,23.93a3.13,3.13,0,0,0,.92,2.24l9,8.94a3.05,3.05,0,0,0,2.15.89h0a3,3,0,0,0,2.14-.9l5.44-5.45h-.54L26,34.83a2.66,2.66,0,0,1-3.76,0l-9-8.94a2.74,2.74,0,0,1-.81-2A2.79,2.79,0,0,1,13.2,22Z" transform="translate(-12 -12)"/><path class="cls-1" d="M27.13,22H20.64a1.47,1.47,0,0,0-1.46,1.48v2.79h1.87v1.94h5.63V26.22H28.6V23.43A1.47,1.47,0,0,0,27.13,22ZM25.8,27.19H21.93V24.9H25.8ZM27.24,24a.52.52,0,0,1-.52-.53.52.52,0,1,1,1,0A.52.52,0,0,1,27.24,24Z" transform="translate(-12 -12)"/><rect class="cls-1" x="9.05" y="7.69" width="5.63" height="1.71"/></svg>