<?xml version="1.0" encoding="utf-8"?>
<!-- Generator: Adobe Illustrator 24.1.0, SVG Export Plug-In . SVG Version: 6.00 Build 0)  -->
<svg version="1.1" id="Capa_1" xmlns="http://www.w3.org/2000/svg" xmlns:xlink="http://www.w3.org/1999/xlink" x="0px" y="0px"
	 viewBox="0 0 3834.4 726.2" style="enable-background:new 0 0 3834.4 726.2;" xml:space="preserve">
<style type="text/css">
	.st0{fill:#FFFFFF;}
	.st1{clip-path:url(#SVGID_2_);fill:url(#SVGID_3_);}
	.st2{clip-path:url(#SVGID_5_);fill:url(#SVGID_6_);}
	.st3{clip-path:url(#SVGID_8_);fill:url(#SVGID_9_);}
	.st4{clip-path:url(#SVGID_11_);fill:url(#SVGID_12_);}
	.st5{clip-path:url(#SVGID_14_);fill:url(#SVGID_15_);}
	.st6{clip-path:url(#SVGID_17_);fill:url(#SVGID_18_);}
	.st7{clip-path:url(#SVGID_20_);fill:url(#SVGID_21_);}
	.st8{fill:#FFFFFF;stroke:#FFFFFF;stroke-miterlimit:10;}
	.st9{clip-path:url(#SVGID_23_);fill:#FFFFFF;stroke:#FFFFFF;stroke-miterlimit:10;}
	.st10{clip-path:url(#SVGID_25_);fill:#FFFFFF;}
	.st11{fill:url(#SVGID_26_);}
	.st12{clip-path:url(#SVGID_28_);fill:url(#SVGID_29_);}
	.st13{fill:url(#SVGID_30_);}
	.st14{clip-path:url(#SVGID_32_);fill:url(#SVGID_33_);}
	.st15{fill:url(#SVGID_34_);}
	.st16{clip-path:url(#SVGID_36_);fill:url(#SVGID_37_);}
</style>
<g>
	<g>
		<path class="st0" d="M1268.8,153c4.1,0.4,8,0.6,11.9,0.6s7.8,0.2,11.9,0.6c15.1,0.8,29.9,3.5,44.4,8.1s27.3,13.1,38.4,25.5
			c9.9,10.8,17.4,23.5,22.4,38s8,29.5,9.1,44.8c0,2.9,0.1,5.8,0.3,8.7c0.2,2.9,0.3,5.8,0.3,8.7c0.4,31.1-6,58-19.1,80.7
			c-13.1,22.6-33.4,37.7-61,45.2l98.8,186.3h-93.9L1245,424.6h-98.3v175.7h-83.4V153H1268.8z M1248.9,232.7h-102.2v112.8h102.2
			c0.7,0.4,1.5,0.6,2.2,0.6h2.2c17.7,0,33.8-3,48.3-9s21.6-21.9,21.3-47.7c0-26.6-7.6-42.6-22.9-48s-32.3-8.1-51.1-8.1V232.7
			L1248.9,232.7z"/>
		<path class="st0" d="M1572.5,258.6c-15.1,18.1-23.6,43.7-25.4,76.9l230.8-0.6v77.9h-231.4c0,15.8,1.6,30.9,4.7,45.5
			c3.1,14.5,9.5,27.8,19.1,39.9c8.5,11.2,18.5,18.2,30.1,20.9s23.5,4,35.6,4h2.5h2.5l136.9-0.6v77.9h-140.8
			c-22.5,0-44.1-2.3-64.9-6.8c-20.8-4.6-40.4-15.2-58.8-31.8c-22.1-20.3-37.6-45.2-46.4-74.4c-8.8-29.3-13.6-59.3-14.4-90
			c-0.4-6.6-0.5-13.1-0.3-19.3c0.2-6.2,0.5-12.5,0.8-18.7c4.1-70.6,21.1-122.5,51.1-155.7s75-49.8,135-49.8l138.6-0.6v77.9H1641
			C1610.4,231.3,1587.6,240.5,1572.5,258.6"/>
		<path class="st0" d="M1980,232.7c-18,0.4-33.2,4.7-45.6,12.8c-12.3,8.1-18.5,23.6-18.5,46.4c0,17.4,5.3,29.9,15.7,37.4
			s22.7,11.2,36.7,11.2l110.4-0.6c4.1,0.4,8.3,0.6,12.7,0.6s8.8,0.2,13.3,0.6c12.9,0.8,25.6,3.2,38.1,7.2s23.6,11.1,33.1,21.5
			c8.8,9.1,15.5,20.1,19.9,33s7.2,26.2,8.3,39.9c0.4,4.2,0.6,8.2,0.8,12.1c0.2,4,0.3,8,0.3,12.1c-0.7,51.9-13.4,87.1-38.1,105.6
			c-24.7,18.5-58.2,27.7-100.5,27.7h-222v-79.7h208.7c18.4,0.4,34.3-2.9,47.8-10c13.4-7.1,18.9-23,16.3-48
			c-1.9-19.5-8.3-31.6-19.3-36.1c-11-4.6-24.1-7.1-39.2-7.5l-98.3-0.6c-40.9,0.4-73.2-8.8-96.9-27.7c-23.7-18.9-35.4-53-35.1-102.5
			c0.7-51.9,13.5-87.3,38.4-106.2c24.8-18.9,58.4-28.4,100.8-28.4l218.1-0.6v79.7L1980,232.7L1980,232.7z"/>
		<path class="st0" d="M2396.9,232.7c-18,0.4-33.2,4.7-45.6,12.8c-12.3,8.1-18.5,23.6-18.5,46.4c0,17.4,5.3,29.9,15.7,37.4
			s22.7,11.2,36.7,11.2l110.4-0.6c4.1,0.4,8.3,0.6,12.7,0.6s8.8,0.2,13.3,0.6c12.9,0.8,25.6,3.2,38.1,7.2s23.6,11.1,33.1,21.5
			c8.8,9.1,15.5,20.1,19.9,33s7.2,26.2,8.3,39.9c0.4,4.2,0.6,8.2,0.8,12.1c0.2,4,0.3,8,0.3,12.1c-0.7,51.9-13.4,87.1-38.1,105.6
			c-24.7,18.5-58.2,27.7-100.5,27.7h-222v-79.7h208.7c18.4,0.4,34.3-2.9,47.8-10c13.4-7.1,18.9-23,16.3-48
			c-1.9-19.5-8.3-31.6-19.3-36.1c-11-4.6-24.1-7.1-39.2-7.5l-98.3-0.6c-40.9,0.4-73.2-8.8-96.9-27.7c-23.7-18.9-35.4-53-35.1-102.5
			c0.7-51.9,13.5-87.3,38.4-106.2s58.4-28.4,100.8-28.4l218.1-0.6v79.7L2396.9,232.7L2396.9,232.7z"/>
		<rect x="2685.1" y="153" class="st0" width="87.3" height="447.3"/>
		<polygon class="st0" points="3387,153 3549.3,474.4 3545.4,153 3630.5,153 3630.5,600.3 3533.8,600.3 3363.2,262 3367.1,600.3 
			3281.5,600.3 3281.5,153 		"/>
		<g>
			<g>
				<g>
					<g>
						<defs>
							<path id="SVGID_1_" d="M3144.5,569c7.1-4.6,14.4-10.3,21.8-17.2C3166.3,551.9,3157.3,559.7,3144.5,569 M3068.3,598.5
								c19.1,8.2,53.6-13,76.2-29.5c-21.8,14.2-40.4,17.7-45.1,12.1c-6.2-7.4,36.2-33,36.2-33
								C3052.2,565.9,3068.3,598.5,3068.3,598.5"/>
						</defs>
						<clipPath id="SVGID_2_">
							<use xlink:href="#SVGID_1_"  style="overflow:visible;"/>
						</clipPath>
						
							<linearGradient id="SVGID_3_" gradientUnits="userSpaceOnUse" x1="4743.75" y1="-2825.3423" x2="4744.7363" y2="-2825.3423" gradientTransform="matrix(100.6063 0 0 100.6063 -474184.0625 284824.6562)">
							<stop  offset="0" style="stop-color:#4A6DAA"/>
							<stop  offset="1" style="stop-color:#414D91"/>
						</linearGradient>
						<rect x="3052.2" y="548.2" class="st1" width="114" height="58.5"/>
					</g>
				</g>
			</g>
		</g>
		<g>
			<g>
				<g>
					<g>
						<defs>
							<path id="SVGID_4_" d="M2921.3,561c9.3,27.5,66.3,37.9,66.3,37.9c-32.2-61.8,152.7-161.9,152.7-161.9
								C3010.4,451.5,2912,533.5,2921.3,561"/>
						</defs>
						<clipPath id="SVGID_5_">
							<use xlink:href="#SVGID_4_"  style="overflow:visible;"/>
						</clipPath>
						
							<linearGradient id="SVGID_6_" gradientUnits="userSpaceOnUse" x1="4769.6704" y1="-2808.2546" x2="4770.6567" y2="-2808.2546" gradientTransform="matrix(222.7709 0 0 222.7709 -1059623.125 626115.375)">
							<stop  offset="0" style="stop-color:#4A6DAA"/>
							<stop  offset="1" style="stop-color:#414D91"/>
						</linearGradient>
						<rect x="2912" y="437" class="st2" width="228.3" height="161.9"/>
					</g>
				</g>
			</g>
		</g>
		<g>
			<g>
				<g>
					<g>
						<defs>
							<path id="SVGID_7_" d="M2924.7,568.9c25.9,28.3,68.2,31.3,68.2,31.3c191.5-17,253.4-155.6,253.4-155.6
								C3058.7,600.3,2924.7,568.9,2924.7,568.9"/>
						</defs>
						<clipPath id="SVGID_8_">
							<use xlink:href="#SVGID_7_"  style="overflow:visible;"/>
						</clipPath>
						
							<linearGradient id="SVGID_9_" gradientUnits="userSpaceOnUse" x1="4776.4336" y1="-2803.7678" x2="4777.4194" y2="-2803.7678" gradientTransform="matrix(326.1959 0 0 326.1959 -1555128.25 915100)">
							<stop  offset="0" style="stop-color:#C6612C"/>
							<stop  offset="1" style="stop-color:#DEB934"/>
						</linearGradient>
						<rect x="2924.7" y="444.7" class="st3" width="321.6" height="155.6"/>
					</g>
				</g>
			</g>
		</g>
		<g>
			<g>
				<g>
					<g>
						<defs>
							<path id="SVGID_10_" d="M2816,395.4c13.9,57,46.9,115.9,46.9,115.9c-15.1-96.8,231.4-257.8,231.4-257.8
								C2860.3,282,2816,395.4,2816,395.4"/>
						</defs>
						<clipPath id="SVGID_11_">
							<use xlink:href="#SVGID_10_"  style="overflow:visible;"/>
						</clipPath>
						
							<linearGradient id="SVGID_12_" gradientUnits="userSpaceOnUse" x1="4774.168" y1="-2805.3242" x2="4775.1543" y2="-2805.3242" gradientTransform="matrix(282.2088 0 0 282.2088 -1344496.25 792069.4375)">
							<stop  offset="0" style="stop-color:#4A6DAA"/>
							<stop  offset="1" style="stop-color:#414D91"/>
						</linearGradient>
						<rect x="2816" y="253.4" class="st4" width="278.3" height="257.8"/>
					</g>
				</g>
			</g>
		</g>
		<g>
			<g>
				<g>
					<g>
						<defs>
							<path id="SVGID_13_" d="M2816,395.4c0,0,23.9,99,54.1,124.3c68.5,46.4,378.9-118,367.9-255.2
								C3238,264.5,2949,454.2,2816,395.4"/>
						</defs>
						<clipPath id="SVGID_14_">
							<use xlink:href="#SVGID_13_"  style="overflow:visible;"/>
						</clipPath>
						
							<linearGradient id="SVGID_15_" gradientUnits="userSpaceOnUse" x1="4779.9097" y1="-2801.4504" x2="4780.8955" y2="-2801.4504" gradientTransform="matrix(428.296 0 0 428.296 -2044400 1200265.25)">
							<stop  offset="0" style="stop-color:#AD2442"/>
							<stop  offset="5.586590e-03" style="stop-color:#AD2442"/>
							<stop  offset="0.2156" style="stop-color:#B12E50"/>
							<stop  offset="1" style="stop-color:#C14E89"/>
						</linearGradient>
						<rect x="2816" y="264.5" class="st5" width="433" height="301.6"/>
					</g>
				</g>
			</g>
		</g>
		<g>
			<g>
				<g>
					<g>
						<defs>
							<path id="SVGID_16_" d="M2819.2,293.4c0,0,57.8-92.2,198.1-165.4C3017.3,128.1,2838.8,146.9,2819.2,293.4"/>
						</defs>
						<clipPath id="SVGID_17_">
							<use xlink:href="#SVGID_16_"  style="overflow:visible;"/>
						</clipPath>
						
							<linearGradient id="SVGID_18_" gradientUnits="userSpaceOnUse" x1="4767.3574" y1="-2809.9475" x2="4768.3433" y2="-2809.9475" gradientTransform="matrix(200.9124 0 0 200.9124 -955002.0625 564764.0625)">
							<stop  offset="0" style="stop-color:#4A6DAA"/>
							<stop  offset="1" style="stop-color:#414D91"/>
						</linearGradient>
						<rect x="2819.2" y="128.1" class="st6" width="198.1" height="165.4"/>
					</g>
				</g>
			</g>
		</g>
		<g>
			<g>
				<g>
					<g>
						<defs>
							<path id="SVGID_19_" d="M2840,230.9c0,0-33.8,58.8-16.2,96.2c17.5,37.4,271.9-48.9,304.1-186.9
								C3127.9,140.2,2925.3,299.1,2840,230.9"/>
						</defs>
						<clipPath id="SVGID_20_">
							<use xlink:href="#SVGID_19_"  style="overflow:visible;"/>
						</clipPath>
						
							<linearGradient id="SVGID_21_" gradientUnits="userSpaceOnUse" x1="4775.8491" y1="-2804.2046" x2="4776.8354" y2="-2804.2046" gradientTransform="matrix(313.5277 0 0 313.5277 -1494542.375 879448.125)">
							<stop  offset="0" style="stop-color:#82A141"/>
							<stop  offset="1" style="stop-color:#BFC85B"/>
						</linearGradient>
						<rect x="2806.3" y="140.2" class="st7" width="321.6" height="224.3"/>
					</g>
				</g>
			</g>
		</g>
		<g>
			<g>
				<polygon id="SVGID_43_" class="st8" points="573.6,54.1 482.9,148.7 608.2,148.7 694.9,54.1 				"/>
			</g>
			<g>
				<g>
					<g>
						<defs>
							<polygon id="SVGID_22_" points="573.6,54.1 482.9,148.7 608.2,148.7 694.9,54.1 							"/>
						</defs>
						<use xlink:href="#SVGID_22_"  style="overflow:visible;fill:#FFFFFF;"/>
						<clipPath id="SVGID_23_">
							<use xlink:href="#SVGID_22_"  style="overflow:visible;"/>
						</clipPath>
						<rect x="151.6" y="35.2" class="st9" width="873.6" height="804.3"/>
						<use xlink:href="#SVGID_22_"  style="overflow:visible;fill:none;stroke:#FFFFFF;stroke-miterlimit:10;"/>
					</g>
				</g>
			</g>
		</g>
		<g>
			<g>
				<polygon id="SVGID_45_" class="st0" points="203.9,148.7 413.9,366.7 216.7,571.4 334,573.6 536.2,366.7 333,148.7 				"/>
			</g>
			<g>
				<g>
					<g>
						<defs>
							<polygon id="SVGID_24_" points="203.9,148.7 413.9,366.7 216.7,571.4 334,573.6 536.2,366.7 333,148.7 							"/>
						</defs>
						<use xlink:href="#SVGID_24_"  style="overflow:visible;fill:#FFFFFF;"/>
						<clipPath id="SVGID_25_">
							<use xlink:href="#SVGID_24_"  style="overflow:visible;"/>
						</clipPath>
						<rect x="151.6" y="-6" class="st10" width="873.6" height="804.3"/>
					</g>
				</g>
			</g>
		</g>
		<g>
			<g>
				
					<linearGradient id="SVGID_26_" gradientUnits="userSpaceOnUse" x1="262.1" y1="3220.3706" x2="480" y2="3220.3706" gradientTransform="matrix(1 0 0 -1 0 3850.1411)">
					<stop  offset="0" style="stop-color:#C14E89"/>
					<stop  offset="0.7844" style="stop-color:#B12E50"/>
					<stop  offset="0.9944" style="stop-color:#AD2442"/>
					<stop  offset="1" style="stop-color:#AD2442"/>
				</linearGradient>
				<polygon id="SVGID_47_" class="st11" points="262.1,677.1 392.2,677.1 480,582.5 352.8,582.5 				"/>
			</g>
			<g>
				<g>
					<g>
						<defs>
							<polygon id="SVGID_27_" points="262.1,677.1 392.2,677.1 480,582.5 352.8,582.5 							"/>
						</defs>
						<clipPath id="SVGID_28_">
							<use xlink:href="#SVGID_27_"  style="overflow:visible;"/>
						</clipPath>
						
							<linearGradient id="SVGID_29_" gradientUnits="userSpaceOnUse" x1="154.6" y1="3346.1206" x2="1028.2" y2="3346.1206" gradientTransform="matrix(1 0 0 -1 0 3850.1411)">
							<stop  offset="0" style="stop-color:#C14E89"/>
							<stop  offset="0.7844" style="stop-color:#B12E50"/>
							<stop  offset="0.9944" style="stop-color:#AD2442"/>
							<stop  offset="1" style="stop-color:#AD2442"/>
						</linearGradient>
						<rect x="154.6" y="101.9" class="st12" width="873.6" height="804.3"/>
					</g>
				</g>
			</g>
		</g>
		<g>
			<g>
				
					<linearGradient id="SVGID_30_" gradientUnits="userSpaceOnUse" x1="498.7" y1="3313.8206" x2="835.9" y2="3313.8206" gradientTransform="matrix(1 0 0 -1 0 3850.1411)">
					<stop  offset="0" style="stop-color:#C14E89"/>
					<stop  offset="0.7844" style="stop-color:#B12E50"/>
					<stop  offset="0.9944" style="stop-color:#AD2442"/>
					<stop  offset="1" style="stop-color:#AD2442"/>
				</linearGradient>
				<polygon id="SVGID_51_" class="st13" points="498.7,459 713.7,682.6 835.9,682.6 562.8,390.1 				"/>
			</g>
			<g>
				<g>
					<g>
						<defs>
							<polygon id="SVGID_31_" points="498.7,459 713.7,682.6 835.9,682.6 562.8,390.1 							"/>
						</defs>
						<clipPath id="SVGID_32_">
							<use xlink:href="#SVGID_31_"  style="overflow:visible;"/>
						</clipPath>
						
							<linearGradient id="SVGID_33_" gradientUnits="userSpaceOnUse" x1="154.6" y1="3444.0205" x2="1028.2" y2="3444.0205" gradientTransform="matrix(1 0 0 -1 0 3850.1411)">
							<stop  offset="0" style="stop-color:#C14E89"/>
							<stop  offset="0.7844" style="stop-color:#B12E50"/>
							<stop  offset="0.9944" style="stop-color:#AD2442"/>
							<stop  offset="1" style="stop-color:#AD2442"/>
						</linearGradient>
						<rect x="154.6" y="4" class="st14" width="873.6" height="804.3"/>
					</g>
				</g>
			</g>
		</g>
		<g>
			<g>
				
					<linearGradient id="SVGID_34_" gradientUnits="userSpaceOnUse" x1="496.7" y1="3521.9207" x2="1005.5316" y2="3521.9207" gradientTransform="matrix(1 0 0 -1 0 3850.1411)">
					<stop  offset="0" style="stop-color:#C14E89"/>
					<stop  offset="0.7844" style="stop-color:#B12E50"/>
					<stop  offset="0.9944" style="stop-color:#AD2442"/>
					<stop  offset="1" style="stop-color:#AD2442"/>
				</linearGradient>
				<path id="SVGID_55_" class="st15" d="M1005.5,300.4c-0.4-24.7-4.7-48.3-13.1-70.9c-8.3-22.6-22.3-40.3-42-53.3
					c-10.8-7.1-22.3-12.2-34.8-15.4c-12.4-3.1-24.9-5.1-37.5-6c-7-0.8-14.1-1.3-21.1-1.3h-22.5c-0.6,0-1-0.2-1.4-0.6h-37.7h-1h-183
					L496.7,273.3l64.1,69l100.3-109h133.4h1h36.6v0.6c21.1,0,39.9,3.9,56.4,11.6s24.4,26,23.6,54.9c0,25.9-7.4,43.4-22.2,52.4
					s-32.4,13.5-52.8,13.5h-41.6h-1H625.9v30.5l100.6,106.8v-60.1l68,1.4v0.8l42,0.9h26.7c17-0.8,33.8-3,50.3-6.6
					c16.5-3.5,31.8-11,45.9-22.3c16.7-13.8,28.6-31.1,35.9-52.1C1002.5,344.7,1005.9,323,1005.5,300.4z"/>
			</g>
			<g>
				<g>
					<g>
						<defs>
							<path id="SVGID_35_" d="M1005.5,300.4c-0.4-24.7-4.7-48.3-13.1-70.9c-8.3-22.6-22.3-40.3-42-53.3
								c-10.8-7.1-22.3-12.2-34.8-15.4c-12.4-3.1-24.9-5.1-37.5-6c-7-0.8-14.1-1.3-21.1-1.3h-22.5c-0.6,0-1-0.2-1.4-0.6h-37.7h-1
								h-183L496.7,273.3l64.1,69l100.3-109h133.4h1h36.6v0.6c21.1,0,39.9,3.9,56.4,11.6s24.4,26,23.6,54.9
								c0,25.9-7.4,43.4-22.2,52.4s-32.4,13.5-52.8,13.5h-41.6h-1H625.9v30.5l100.6,106.8v-60.1l68,1.4v0.8l42,0.9h26.7
								c17-0.8,33.8-3,50.3-6.6c16.5-3.5,31.8-11,45.9-22.3c16.7-13.8,28.6-31.1,35.9-52.1C1002.5,344.7,1005.9,323,1005.5,300.4z"
								/>
						</defs>
						<clipPath id="SVGID_36_">
							<use xlink:href="#SVGID_35_"  style="overflow:visible;"/>
						</clipPath>
						
							<linearGradient id="SVGID_37_" gradientUnits="userSpaceOnUse" x1="154.6" y1="3446.2207" x2="1028.2" y2="3446.2207" gradientTransform="matrix(1 0 0 -1 0 3850.1411)">
							<stop  offset="0" style="stop-color:#C14E89"/>
							<stop  offset="0.7844" style="stop-color:#B12E50"/>
							<stop  offset="0.9944" style="stop-color:#AD2442"/>
							<stop  offset="1" style="stop-color:#AD2442"/>
						</linearGradient>
						<rect x="154.6" y="1.8" class="st16" width="873.6" height="804.3"/>
					</g>
				</g>
			</g>
		</g>
	</g>
</g>
</svg>
