<svg id="Capa_1" data-name="Capa 1" xmlns="http://www.w3.org/2000/svg" viewBox="0 0 24 24"><defs><style>.cls-1{fill:#8a2e76;}</style></defs><title>mostrador</title><path class="cls-1" d="M35.09,21.79,26.25,12.9a3.06,3.06,0,0,0-2.14-.9h0a3,3,0,0,0-2.13.87l-9,8.84A3.07,3.07,0,0,0,12,23.93a3.13,3.13,0,0,0,.92,2.24l9,8.94a3.05,3.05,0,0,0,2.15.89h0a3,3,0,0,0,2.14-.9l5.44-5.45h-.54L26,34.83a2.66,2.66,0,0,1-3.76,0l-9-8.94a2.74,2.74,0,0,1-.81-2A2.79,2.79,0,0,1,13.2,22l9-8.83a2.65,2.65,0,0,1,1.86-.76,2.68,2.68,0,0,1,1.89.79l8.84,8.89a2.68,2.68,0,0,1,.8,1.93,2.61,2.61,0,0,1-.09.69h.4A3.92,3.92,0,0,0,36,24,3.11,3.11,0,0,0,35.09,21.79Z" transform="translate(-12 -12)"/><path class="cls-1" d="M24.42,31.18s.41-1.84.8-3.88a7.68,7.68,0,0,0,1.07,1.83l0,.05.21-.1a18.47,18.47,0,0,1-1.08-2.94,31,31,0,0,0,.48-3.8A11.87,11.87,0,0,0,25.37,18c0-.38.05-.6.05-.6a29.29,29.29,0,0,0-3.07,1.25L22,28.76a9.86,9.86,0,0,1-.74.75l.15.18s.35-.32.7-.7l2.37.9c-.16.74-.27,1.22-.27,1.24Zm.37-5.86.2.16-.22.22C24.78,25.58,24.78,25.45,24.79,25.32Zm0,.74.37-.38a4.46,4.46,0,0,0,.08.46L25,27.29l-.32.07C24.69,26.94,24.72,26.51,24.75,26.06Zm1,1.81c-.14-.28-.28-.59-.42-.88l0,0,.06-.34C25.46,27.07,25.61,27.49,25.75,27.87Zm-.06-5.54a25.47,25.47,0,0,1-.36,3.08l0-.07-.08,0L24.81,25c.17-2.41.38-5,.5-6.44A12.86,12.86,0,0,1,25.69,22.33Zm-1,5.27.29-.06c-.12.64-.25,1.26-.36,1.79C24.6,28.83,24.62,28.25,24.65,27.6Z" transform="translate(-12 -12)"/></svg>