<svg id="Capa_1" data-name="Capa 1" xmlns="http://www.w3.org/2000/svg" viewBox="0 0 24 24"><defs><style>.cls-1{fill:#30569d;}</style></defs><title>vinilos</title><path class="cls-1" d="M35.09,21.79,26.25,12.9a3.06,3.06,0,0,0-2.14-.9h0a3,3,0,0,0-2.13.87l-9,8.84A3.07,3.07,0,0,0,12,23.93a3.13,3.13,0,0,0,.92,2.24l9,8.94a3.05,3.05,0,0,0,2.15.89h0a3,3,0,0,0,2.14-.9l5.44-5.45h-.54L26,34.83a2.66,2.66,0,0,1-3.76,0l-9-8.94a2.74,2.74,0,0,1-.81-2A2.79,2.79,0,0,1,13.2,22l9-8.83a2.65,2.65,0,0,1,1.86-.76,2.68,2.68,0,0,1,1.89.79l8.84,8.89a2.68,2.68,0,0,1,.8,1.93,2.61,2.61,0,0,1-.09.69h.4A3.92,3.92,0,0,0,36,24,3.11,3.11,0,0,0,35.09,21.79Z" transform="translate(-12 -12)"/><ellipse class="cls-1" cx="9.4" cy="9.75" rx="0.73" ry="0.74"/><ellipse class="cls-1" cx="9.4" cy="13.33" rx="0.73" ry="0.74"/><path class="cls-1" d="M24.12,27.19a3.28,3.28,0,0,1,.15,1h5c-.08-4-2.18-4.83-2.18-4.83h0a1.83,1.83,0,0,0,1-1.64,1.85,1.85,0,0,0-1.67-1.84h-5a1.83,1.83,0,0,0-1.75,1.84A1.85,1.85,0,0,0,21,23.56a1.85,1.85,0,0,0,.44,3.63h2.72ZM27,23.81s1.72.51,1.88,3.89H24.69s-.34-3-1.57-3.89Zm-7-2a1.52,1.52,0,1,1,1.52,1.54A1.52,1.52,0,0,1,19.9,21.77Zm0,3.58a1.52,1.52,0,1,1,3,0v.47l0,0v.07l0,0v0l0,0,0,0,0,0v0l0,0v0l0,0,0,0,0,0,0,0,0,0,0,0a.08.08,0,0,1,0,0v0l-.06.05-.36.25h0l-.07,0h0l-.05,0h0l0,0h0l-.05,0h-.35A1.53,1.53,0,0,1,19.9,25.35Z" transform="translate(-12 -12)"/></svg>